<svg width="20" height="14" viewBox="0 0 20 14" fill="none" xmlns="http://www.w3.org/2000/svg">
<path fill-rule="evenodd" clip-rule="evenodd" d="M12.4847 3.69238C12.8246 3.69238 13.1001 3.41687 13.1001 3.077C13.1001 2.73713 12.8246 2.46161 12.4847 2.46161L10.6387 2.46161L10.6387 0.615385C10.6387 0.275517 10.3632 -1.19636e-07 10.0233 -1.34492e-07C9.68342 -1.49348e-07 9.4079 0.275517 9.4079 0.615385L9.4079 2.46161L7.56164 2.46161C7.22177 2.46161 6.94625 2.73713 6.94625 3.077C6.94625 3.41687 7.22177 3.69238 7.56164 3.69238L9.4079 3.69238L9.4079 5.53846C9.4079 5.87833 9.68342 6.15385 10.0233 6.15385C10.3632 6.15385 10.6387 5.87833 10.6387 5.53846L10.6387 3.69238L12.4847 3.69238Z" fill="black"/>
<path d="M20 12.4195L20 4.08025C20 3.19136 19.3086 2.5 18.4198 2.5L15.5926 2.5C15.2963 2.5 15 2.7963 15 3.09259C15 3.38889 15.2963 3.68519 15.5926 3.68519L18.4198 3.68519C18.6173 3.68519 18.8148 3.88272 18.8148 4.08025L18.8148 12.4195C18.8148 12.6171 18.6173 12.8146 18.4198 12.8146L1.58025 12.8146C1.38272 12.8146 1.18518 12.6171 1.18518 12.4195L1.18519 4.08025C1.18519 3.88272 1.38272 3.68519 1.58025 3.68519L4.40741 3.68519C4.80247 3.68519 5.075 3.48765 5.075 3.09259C5.075 2.69753 4.80247 2.5 4.40741 2.5L1.58025 2.5C0.691358 2.5 5.72026e-08 3.19136 1.8348e-08 4.08025L-4.33597e-07 12.4195C-4.72452e-07 13.3084 0.691357 13.9998 1.58025 13.9998L18.4198 13.9998C19.3086 13.9998 20 13.3084 20 12.4195Z" fill="black"/>
</svg>
