<svg width="16" height="16" viewBox="0 0 16 16" fill="none" xmlns="http://www.w3.org/2000/svg">
<path fill-rule="evenodd" clip-rule="evenodd" d="M15 13V5C15 4.44772 14.5523 4 14 4H9.20156C8.52035 4 7.85942 3.76816 7.32748 3.34261L6.47096 2.65739C5.93902 2.23184 5.27809 2 4.59688 2H2C1.44772 2 1 2.44772 1 3V13C1 13.5523 1.44772 14 2 14H14C14.5523 14 15 13.5523 15 13ZM2 1C0.895431 1 0 1.89543 0 3V13C0 14.1046 0.895431 15 2 15H14C15.1046 15 16 14.1046 16 13V5C16 3.89543 15.1046 3 14 3H9.20156C8.74742 3 8.3068 2.84544 7.95217 2.56174L7.09566 1.87652C6.3864 1.30912 5.50516 1 4.59688 1H2Z" fill="black"/>
<path fill-rule="evenodd" clip-rule="evenodd" d="M8.5 7C8.5 6.72386 8.27614 6.5 8 6.5C7.72386 6.5 7.5 6.72386 7.5 7V8.5H6C5.72386 8.5 5.5 8.72386 5.5 9C5.5 9.27614 5.72386 9.5 6 9.5H7.5V11C7.5 11.2761 7.72386 11.5 8 11.5C8.27614 11.5 8.5 11.2761 8.5 11V9.5H10C10.2761 9.5 10.5 9.27614 10.5 9C10.5 8.72386 10.2761 8.5 10 8.5H8.5V7Z" fill="black"/>
</svg>
