<svg width="16" height="16" viewBox="0 0 16 16" fill="none" xmlns="http://www.w3.org/2000/svg">
<path fill-rule="evenodd" clip-rule="evenodd" d="M13 13V5.82843C13 5.71555 12.9809 5.60463 12.9445 5.5H10.1421C9.86595 5.5 9.64209 5.27614 9.64209 5V2.0563L9.58579 2H4C3.44772 2 3 2.44772 3 3V13C3 13.5523 3.44772 14 4 14H12C12.5523 14 13 13.5523 13 13ZM10.6421 3.0563V4.5H12.0858L10.6421 3.0563ZM10 1L13.4142 4.41421C13.7893 4.78929 14 5.29799 14 5.82843V13C14 14.1046 13.1046 15 12 15H4C2.89543 15 2 14.1046 2 13V3C2 1.89543 2.89543 1 4 1H10Z" fill="black"/>
<path fill-rule="evenodd" clip-rule="evenodd" d="M8.5 7C8.5 6.72386 8.27614 6.5 8 6.5C7.72386 6.5 7.5 6.72386 7.5 7V8.5H6C5.72386 8.5 5.5 8.72386 5.5 9C5.5 9.27614 5.72386 9.5 6 9.5H7.5V11C7.5 11.2761 7.72386 11.5 8 11.5C8.27614 11.5 8.5 11.2761 8.5 11V9.5H10C10.2761 9.5 10.5 9.27614 10.5 9C10.5 8.72386 10.2761 8.5 10 8.5H8.5V7Z" fill="black"/>
</svg>
