<svg width="16" height="16" viewBox="0 0 16 16" fill="none" xmlns="http://www.w3.org/2000/svg">
<g clip-path="url(#clip0_528_937)">
<path fill-rule="evenodd" clip-rule="evenodd" d="M8.04917 14.7861C11.7699 14.7861 14.7861 11.7698 14.7861 8.04911C14.7861 4.32839 11.7699 1.31214 8.04917 1.31214C4.32845 1.31214 1.31221 4.32838 1.31221 8.04911C1.31221 11.7698 4.32845 14.7861 8.04917 14.7861ZM16.0361 8.04911C16.0361 12.4602 12.4602 16.0361 8.04917 16.0361C3.63809 16.0361 0.0622056 12.4602 0.062206 8.04911C0.0622064 3.63803 3.63809 0.0621432 8.04917 0.0621436C12.4602 0.062144 16.0361 3.63803 16.0361 8.04911Z" fill="black"/>
<path fill-rule="evenodd" clip-rule="evenodd" d="M8.04932 12.6005C7.70414 12.6005 7.42432 12.3206 7.42432 11.9755L7.42432 7.06749C7.42432 6.72231 7.70414 6.44249 8.04932 6.44249C8.39449 6.44249 8.67432 6.72231 8.67432 7.06749L8.67432 11.9755C8.67432 12.3206 8.39449 12.6005 8.04932 12.6005Z" fill="black"/>
<path d="M8.04923 4.02454C7.72395 4.02454 7.46027 4.28822 7.46027 4.6135C7.46027 4.93877 7.72395 5.20245 8.04923 5.20245C8.3745 5.20245 8.63818 4.93877 8.63818 4.6135C8.63818 4.28822 8.3745 4.02454 8.04923 4.02454Z" fill="black"/>
</g>
<defs>
<clipPath id="clip0_528_937">
<rect width="16" height="16" fill="white" transform="translate(16 16) rotate(-180)"/>
</clipPath>
</defs>
</svg>
