<svg width="16" height="16" viewBox="0 0 16 16" fill="none" xmlns="http://www.w3.org/2000/svg">
<g clip-path="url(#clip0_528_936)">
<path fill-rule="evenodd" clip-rule="evenodd" d="M7.95083 1.21393C4.23011 1.21393 1.21387 4.23017 1.21387 7.95089C1.21387 11.6716 4.23011 14.6879 7.95083 14.6879C11.6716 14.6879 14.6878 11.6716 14.6878 7.95089C14.6878 4.23017 11.6716 1.21393 7.95083 1.21393ZM-0.0361328 7.95089C-0.0361328 3.53981 3.53975 -0.0360718 7.95083 -0.0360718C12.3619 -0.0360718 15.9378 3.53981 15.9378 7.95089C15.9378 12.362 12.3619 15.9379 7.95083 15.9379C3.53975 15.9379 -0.0361328 12.362 -0.0361328 7.95089Z" fill="black"/>
<path fill-rule="evenodd" clip-rule="evenodd" d="M7.95068 3.39954C8.29586 3.39954 8.57568 3.67936 8.57568 4.02454V8.93251C8.57568 9.27769 8.29586 9.55751 7.95068 9.55751C7.60551 9.55751 7.32568 9.27769 7.32568 8.93251V4.02454C7.32568 3.67936 7.60551 3.39954 7.95068 3.39954Z" fill="black"/>
<path d="M7.95077 11.9755C8.27605 11.9755 8.53973 11.7118 8.53973 11.3865C8.53973 11.0612 8.27605 10.7975 7.95077 10.7975C7.6255 10.7975 7.36182 11.0612 7.36182 11.3865C7.36182 11.7118 7.6255 11.9755 7.95077 11.9755Z" fill="black"/>
</g>
<defs>
<clipPath id="clip0_528_936">
<rect width="16" height="16" fill="white"/>
</clipPath>
</defs>
</svg>
