<svg width="16" height="16" viewBox="0 0 16 16" fill="none" xmlns="http://www.w3.org/2000/svg">
<path fill-rule="evenodd" clip-rule="evenodd" d="M1.9206 0.452828C2.22519 0.148236 2.63736 0 3.07392 0H12.9106C13.8843 0 14.5167 0.811674 14.5167 1.60615V11.0494C14.5167 11.0917 14.5154 11.1338 14.5125 11.1755C14.5151 11.1987 14.5164 11.2222 14.5164 11.2461C14.5164 11.3502 14.4909 11.4484 14.4457 11.5346C14.4298 11.5847 14.4111 11.6343 14.3893 11.6833C14.3005 11.8831 14.1744 12.043 14.0393 12.1781L10.6949 15.5226C10.5597 15.6577 10.3999 15.7838 10.2001 15.8726C9.99942 15.9618 9.79005 15.9993 9.57197 16C9.56992 16 9.56787 16 9.56582 16C9.5641 16 9.56237 16 9.56065 16H3.07392C2.63736 16 2.22519 15.8517 1.9206 15.5472C1.61601 15.2426 1.46777 14.8304 1.46777 14.3938V1.60615C1.46777 1.16959 1.61601 0.757421 1.9206 0.452828ZM10.1883 14.2685L12.5882 11.8686H10.1883V14.2685ZM13.2718 10.6236H9.56582C9.22203 10.6236 8.94334 10.9023 8.94334 11.2461V14.755H3.07392C2.92028 14.755 2.84061 14.7065 2.80092 14.6668C2.76123 14.6271 2.71273 14.5475 2.71273 14.3938V1.60615C2.71273 1.4525 2.76123 1.37284 2.80092 1.33314C2.84061 1.29345 2.92028 1.24496 3.07392 1.24496H12.9106C13.1173 1.24496 13.2718 1.41695 13.2718 1.60615V10.6236ZM5.53284 4.91836C5.18906 4.91836 4.91037 5.19706 4.91037 5.54084C4.91037 5.88463 5.18906 6.16332 5.53284 6.16332H10.4512C10.795 6.16332 11.0737 5.88463 11.0737 5.54084C11.0737 5.19706 10.795 4.91836 10.4512 4.91836H5.53284ZM5.53284 7.37751C5.18906 7.37751 4.91037 7.65621 4.91037 7.99999C4.91037 8.34378 5.18906 8.62247 5.53284 8.62247H10.4512C10.795 8.62247 11.0737 8.34378 11.0737 7.99999C11.0737 7.65621 10.795 7.37751 10.4512 7.37751H5.53284Z" fill="black"/>
</svg>
