<svg width="16" height="16" viewBox="0 0 16 16" fill="none" xmlns="http://www.w3.org/2000/svg">
<path d="M9.37505 16H6.43027C6.13579 16 5.84131 15.7055 5.84131 15.4111C5.84131 15.1166 6.03763 14.7239 6.43027 14.7239H9.37505C9.66953 14.7239 9.96401 15.0184 9.96401 15.3129C9.96401 15.6074 9.66953 16 9.37505 16Z" fill="black"/>
<path d="M9.86602 13.546H5.93963C5.64516 13.546 5.35068 13.2515 5.35068 12.9571V12.7607C5.35068 11.3865 4.85988 10.1104 3.97644 9.03067C3.19117 8.14724 2.79853 6.96933 2.70037 5.39877C2.60221 4.02454 2.99485 2.84663 3.78013 1.86503C4.85988 0.687117 6.33227 0 7.90282 0H8.00098C9.6697 0 11.1421 0.785276 12.2218 2.06135C13.3998 3.53374 13.6942 5.49693 13.0071 7.2638C12.8108 7.95092 12.4182 8.53988 11.9274 9.03067C10.9458 10.1104 10.455 11.4847 10.455 12.9571C10.455 13.2515 10.2587 13.546 9.86602 13.546ZM6.52859 12.3681H9.37522C9.47338 10.8957 10.1605 9.42331 11.1421 8.2454C11.4366 7.85276 11.731 7.36196 11.8292 6.87117C12.32 5.49693 12.1237 3.92638 11.2402 2.84663C10.455 1.86503 9.27706 1.27607 8.00098 1.17791C6.72491 1.17791 5.547 1.66871 4.76172 2.65031C4.17276 3.33742 3.87828 4.31902 3.97644 5.30061C4.0746 6.57669 4.36908 7.55828 4.85988 8.2454C5.84148 9.42331 6.43043 10.8957 6.52859 12.3681Z" fill="black"/>
</svg>
