<svg width="16" height="16" viewBox="0 0 16 16" fill="none" xmlns="http://www.w3.org/2000/svg">
<g clip-path="url(#clip0_528_946)">
<path fill-rule="evenodd" clip-rule="evenodd" d="M9.45009 2.16474C8.79074 1.01347 7.19088 1.07906 6.65549 2.14983L6.65441 2.152L6.6544 2.152L1.45672 12.4493C0.972465 13.5017 1.74958 14.676 2.84661 14.676H13.1534C14.3438 14.676 15.0365 13.5011 14.636 12.5365L9.45009 2.16474ZM5.51681 1.57911C6.55053 -0.486225 9.45553 -0.423711 10.5673 1.5528C10.5724 1.56182 10.5772 1.57096 10.5819 1.58022L15.7843 11.9851C15.7899 11.9963 15.7952 12.0076 15.8001 12.0191C16.5633 13.8 15.2939 15.9497 13.1534 15.9497H2.84661C0.805385 15.9497 -0.575829 13.7928 0.306315 11.9025C0.309083 11.8965 0.311941 11.8906 0.314889 11.8848L5.51626 1.58022C5.51644 1.57985 5.51663 1.57948 5.51681 1.57911Z" fill="black"/>
<path fill-rule="evenodd" clip-rule="evenodd" d="M7.95081 4.36926C8.30254 4.36926 8.58766 4.65439 8.58766 5.00611V10.0122C8.58766 10.364 8.30254 10.6491 7.95081 10.6491C7.59909 10.6491 7.31396 10.364 7.31396 10.0122V5.00611C7.31396 4.65439 7.59909 4.36926 7.95081 4.36926Z" fill="black"/>
<path d="M7.95077 12.4662C8.27605 12.4662 8.53973 12.2026 8.53973 11.8773C8.53973 11.552 8.27605 11.2883 7.95077 11.2883C7.6255 11.2883 7.36182 11.552 7.36182 11.8773C7.36182 12.2026 7.6255 12.4662 7.95077 12.4662Z" fill="black"/>
</g>
<defs>
<clipPath id="clip0_528_946">
<rect width="16" height="16" fill="white"/>
</clipPath>
</defs>
</svg>
