<svg width="16" height="16" viewBox="0 0 16 16" fill="none" xmlns="http://www.w3.org/2000/svg">
<path fill-rule="evenodd" clip-rule="evenodd" d="M3.98053 5.21967C3.68763 4.92678 3.21276 4.92678 2.91987 5.21967C2.62697 5.51256 2.62697 5.98744 2.91987 6.28033L7.51437 10.8748C7.51493 10.8754 7.51549 10.876 7.51605 10.8765C7.55267 10.9131 7.59212 10.9452 7.63371 10.9726C7.92278 11.1635 8.31488 11.1332 8.5713 10.8819C8.57311 10.8801 8.57492 10.8783 8.57672 10.8765C8.57728 10.876 8.57784 10.8754 8.5784 10.8748L13.1729 6.28033C13.4658 5.98744 13.4658 5.51256 13.1729 5.21967C12.88 4.92678 12.4051 4.92678 12.1122 5.21967L8.04639 9.28553L3.98053 5.21967Z" fill="black"/>
</svg>
