<svg width="16" height="16" viewBox="0 0 16 16" fill="none" xmlns="http://www.w3.org/2000/svg">
<path d="M15 3C15 1.9 14.1 1 13 1C11.9 1 11 1.9 11 3C11 3.9 11.6 4.7 12.5 4.9V5.7C12.5 6.2 12.3 6.6 12 7C11.7 7.3 11.2 7.5 10.7 7.5H5.4C4.7 7.5 4 7.8 3.5 8.2V4.9C4.4 4.7 5 3.9 5 3C5 1.9 4.1 1 3 1C1.9 1 1 1.9 1 3C1 3.9 1.6 4.7 2.5 4.9V10.3V11C1.6 11.3 1 12.1 1 13C1 14.1 1.9 15 3 15C4.1 15 5 14.1 5 13C5 12.1 4.4 11.3 3.5 11.1V10.3C3.5 9.8 3.7 9.3 4 9C4.3 8.7 4.8 8.5 5.3 8.5H10.6C11.4 8.5 12.1 8.2 12.6 7.7C13.1 7.2 13.4 6.5 13.4 5.7V4.9C14.4 4.7 15 3.9 15 3ZM2 3C2 2.4 2.4 2 3 2C3.6 2 4 2.4 4 3C4 3.6 3.6 4 3 4C2.4 4 2 3.6 2 3ZM4 13C4 13.6 3.6 14 3 14C2.4 14 2 13.6 2 13C2 12.4 2.4 12 3 12C3.6 12 4 12.4 4 13Z" fill="black"/>
</svg>
