<svg width="16" height="16" viewBox="0 0 16 16" fill="none" xmlns="http://www.w3.org/2000/svg">
<path d="M13 12C13.6 12 14 12.4 14 13C14 13.6 13.6 14 13 14C12.4 14 12 13.6 12 13C12 12.4 12.4 12 13 12ZM13 11C11.9 11 11 11.9 11 13C11 14.1 11.9 15 13 15C14.1 15 15 14.1 15 13C15 11.9 14.1 11 13 11Z" fill="black"/>
<path d="M3.5 11.1V4.9C4.4 4.7 5 3.9 5 3C5 1.9 4.1 1 3 1C1.9 1 1 1.9 1 3C1 3.9 1.6 4.7 2.5 4.9V11C1.6 11.3 1 12.1 1 13C1 14.1 1.9 15 3 15C4.1 15 5 14.1 5 13C5 12.1 4.4 11.3 3.5 11.1ZM3 14C2.4 14 2 13.6 2 13C2 12.4 2.4 12 3 12C3.6 12 4 12.4 4 13C4 13.6 3.6 14 3 14Z" fill="black"/>
<path d="M8.9999 2.60001H8.2999L8.5999 2.30001C8.7999 2.10001 8.7999 1.80001 8.5999 1.60001C8.3999 1.40001 8.0999 1.40001 7.8999 1.60001L6.7999 2.80001C6.5999 3.00001 6.5999 3.30001 6.7999 3.50001L7.9999 4.70001C7.9999 4.80001 8.1999 4.80001 8.2999 4.80001C8.3999 4.80001 8.5999 4.80001 8.6999 4.70001C8.8999 4.50001 8.8999 4.20001 8.6999 4.00001L8.2999 3.60001H8.9999C10.8999 3.60001 12.4999 5.20001 12.4999 7.10001V9.20001C12.4999 9.50001 12.6999 9.70001 12.9999 9.70001C13.2999 9.70001 13.4999 9.50001 13.4999 9.20001V7.10001C13.4999 4.70001 11.4999 2.60001 8.9999 2.60001Z" fill="black"/>
</svg>
