<svg width="16" height="16" viewBox="0 0 16 16" fill="none" xmlns="http://www.w3.org/2000/svg">
<path fill-rule="evenodd" clip-rule="evenodd" d="M12.1122 4.21967C12.4051 3.92678 12.88 3.92678 13.1729 4.21967C13.4658 4.51256 13.4658 4.98744 13.1729 5.28033L7.57848 10.8748C7.57789 10.8753 7.5773 10.8759 7.57671 10.8765C7.5401 10.9131 7.50065 10.9452 7.45906 10.9726C7.16812 11.1647 6.77281 11.1328 6.51651 10.877C6.51636 10.8768 6.51621 10.8767 6.51605 10.8765C6.51551 10.876 6.51496 10.8754 6.51441 10.8749L3.91987 8.28033C3.62697 7.98744 3.62697 7.51256 3.91987 7.21967C4.21276 6.92678 4.68763 6.92678 4.98053 7.21967L7.04639 9.28553L12.1122 4.21967Z" fill="black"/>
</svg>
