<svg width="17" height="16" viewBox="0 0 17 16" fill="none" xmlns="http://www.w3.org/2000/svg">
<path fill-rule="evenodd" clip-rule="evenodd" d="M10.1562 12.0759C9.8633 12.3688 9.8633 12.8436 10.1562 13.1365C10.4491 13.4294 10.924 13.4294 11.2169 13.1365L15.8114 8.54203C15.8119 8.54147 15.8125 8.5409 15.813 8.54034C15.8497 8.50373 15.8817 8.46427 15.9092 8.42268C16.1 8.13362 16.0698 7.74151 15.8184 7.4851C15.8166 7.48329 15.8148 7.48148 15.813 7.47968C15.8125 7.47912 15.8119 7.47855 15.8114 7.47799L11.2169 2.88349C10.924 2.5906 10.4491 2.5906 10.1562 2.88349C9.8633 3.17638 9.8633 3.65126 10.1562 3.94415L14.2221 8.01001L10.1562 12.0759Z" fill="black"/>
<path fill-rule="evenodd" clip-rule="evenodd" d="M5.93658 12.0759C6.22947 12.3688 6.22947 12.8436 5.93658 13.1365C5.64369 13.4294 5.16881 13.4294 4.87592 13.1365L0.281415 8.54203C0.280851 8.54147 0.280288 8.5409 0.279726 8.54034C0.243114 8.50373 0.21108 8.46427 0.18362 8.42268C-0.00723982 8.13362 0.0230055 7.74151 0.274356 7.4851C0.276135 7.48329 0.277925 7.48148 0.279726 7.47968C0.280288 7.47912 0.280851 7.47855 0.281415 7.47799L4.87592 2.88349C5.16881 2.5906 5.64369 2.5906 5.93658 2.88349C6.22947 3.17638 6.22947 3.65126 5.93658 3.94415L1.87072 8.01001L5.93658 12.0759Z" fill="black"/>
</svg>
