<svg width="16" height="16" viewBox="0 0 16 16" fill="none" xmlns="http://www.w3.org/2000/svg">
<g clip-path="url(#clip0_496_885)">
<path d="M10.5 12.1H1.6C0.7 12.1 0 11.4 0 10.5V1.6C0 0.7 0.7 0 1.6 0H10.5C11.4 0 12.1 0.7 12.1 1.6V10.5C12.1 11.3 11.3 12.1 10.5 12.1ZM1.6 1.2C1.4 1.2 1.2 1.4 1.2 1.6V10.5C1.2 10.7 1.4 10.9 1.6 10.9H10.5C10.7 10.9 10.9 10.7 10.9 10.5V1.6C10.9 1.4 10.7 1.2 10.5 1.2H1.6Z" fill="black"/>
<path d="M14.3999 16H5.4999C4.5999 16 3.8999 15.3 3.8999 14.4V13.9C3.8999 13.6 4.1999 13.3 4.4999 13.3C4.7999 13.3 5.0999 13.6 5.0999 13.9V14.4C5.0999 14.6 5.2999 14.8 5.4999 14.8H14.3999C14.5999 14.8 14.7999 14.6 14.7999 14.4V5.50002C14.7999 5.30002 14.5999 5.10002 14.3999 5.10002H13.8999C13.5999 5.10002 13.2999 4.80002 13.2999 4.50002C13.2999 4.20002 13.5999 3.90002 13.8999 3.90002H14.3999C15.2999 3.90002 15.9999 4.60002 15.9999 5.50002V14.4C15.9999 15.3 15.2999 16 14.3999 16Z" fill="black"/>
</g>
<defs>
<clipPath id="clip0_496_885">
<rect width="16" height="16" fill="white"/>
</clipPath>
</defs>
</svg>
