<svg width="16" height="16" viewBox="0 0 16 16" fill="none" xmlns="http://www.w3.org/2000/svg">
<path d="M7.9999 11.1C7.6999 11.1 7.3999 10.8 7.3999 10.5V7.50002C7.3999 7.20002 7.6999 6.90002 7.9999 6.90002C8.2999 6.90002 8.5999 7.20002 8.5999 7.50002V10.5C8.5999 10.8 8.2999 11.1 7.9999 11.1Z" fill="black"/>
<path d="M13.4 4H11.9H4.1H2.6C2.3 4 2 4.3 2 4.6C2 4.9 2.3 5.2 2.6 5.2H3.5V12.3C3.5 13.2 4.2 13.9 5.1 13.9H10.9C11.8 13.9 12.5 13.2 12.5 12.3V5.2H13.4C13.7 5.2 14 5 14 4.6C14 4.2 13.7 4 13.4 4ZM11.2 12.4C11.2 12.6 11 12.8 10.8 12.8H5.1C4.9 12.8 4.7 12.6 4.7 12.4V5.2H11.2V12.4Z" fill="black"/>
<path d="M9.9 3.2H6.1C5.8 3.2 5.5 3 5.5 2.6C5.5 2.2 5.8 2 6.1 2H9.9C10.2 2 10.5 2.3 10.5 2.6C10.5 2.9 10.2 3.2 9.9 3.2Z" fill="black"/>
</svg>
