<svg width="16" height="16" viewBox="0 0 16 16" fill="none" xmlns="http://www.w3.org/2000/svg">
<path d="M6.4999 13.1C6.7999 13.1 7.0999 12.8 7.0999 12.5V6.50002C7.0999 6.20002 6.7999 5.90002 6.4999 5.90002C6.1999 5.90002 5.8999 6.20002 5.8999 6.50002V12.5C5.8999 12.8 6.1999 13.1 6.4999 13.1Z" fill="black"/>
<path d="M9.4999 13.1C9.7999 13.1 10.0999 12.8 10.0999 12.5V6.50002C10.0999 6.20002 9.7999 5.90002 9.4999 5.90002C9.1999 5.90002 8.8999 6.20002 8.8999 6.50002V12.5C8.8999 12.8 9.1999 13.1 9.4999 13.1Z" fill="black"/>
<path d="M14.9 3H11C11 1.3 9.7 0 8 0C6.3 0 5 1.3 5 3H1.1C0.8 3 0.5 3.3 0.5 3.6C0.5 3.9 0.8 4.2 1.1 4.2H2.5V14.3C2.5 15.3 3.2 16 4.1 16H11.9C12.8 16 13.5 15.3 13.5 14.4V4.2H14.9C15.2 4.2 15.5 4 15.5 3.6C15.5 3.2 15.2 3 14.9 3ZM8 1.2C9 1.2 9.8 2 9.8 3H6.2C6.2 2 7 1.2 8 1.2ZM11.9 14.8H4.1C3.9 14.8 3.7 14.6 3.7 14.4V4.2H12.2V14.4C12.2 14.6146 12.0792 14.8 11.9 14.8Z" fill="black"/>
</svg>
