<svg width="16" height="16" viewBox="0 0 16 16" fill="none" xmlns="http://www.w3.org/2000/svg">
<path fill-rule="evenodd" clip-rule="evenodd" d="M8.75 16H15.3C15.7 16 16 15.7 16 15.3V0.599998C16 0.300003 15.7 0 15.3 0H8.75H7.5H0.600006C0.299988 0 0 0.300003 0 0.599998V15.3C0 15.7 0.299988 16 0.600006 16H7.5H8.75ZM8.75 14.7H14.7V1.2H8.75V14.7ZM7.5 14.7V1.2H1.20001V14.7H7.5Z" fill="black"/>
<rect x="2.25" y="11" width="3" height="1.25" rx="0.625" fill="black"/>
<rect x="2.25" y="8.5" width="4" height="1.25" rx="0.625" fill="black"/>
<rect x="2.25" y="6" width="3" height="1.25" rx="0.625" fill="black"/>
<rect x="2.25" y="3.5" width="3" height="1.25" rx="0.625" fill="black"/>
<rect x="9.75" y="8.5" width="3" height="1.25" rx="0.625" fill="black"/>
<rect x="9.75" y="6" width="4" height="1.25" rx="0.625" fill="black"/>
<rect x="9.75" y="3.5" width="4" height="1.25" rx="0.625" fill="black"/>
</svg>
