<svg width="16" height="16" viewBox="0 0 16 16" fill="none" xmlns="http://www.w3.org/2000/svg">
<g clip-path="url(#clip0_496_894)">
<path d="M12.8397 6.71604C12.6422 6.71604 12.5434 6.61728 12.4447 6.51851L9.48171 3.55555C9.38295 3.45678 9.28418 3.25925 9.28418 3.16049C9.28418 3.06172 9.38295 2.86419 9.48171 2.76543L12.0496 0.197526C12.2471 -5.26756e-06 12.6422 -5.26756e-06 12.8397 0.197526L15.8027 3.16049C15.9015 3.25925 16.0002 3.45678 16.0002 3.55555C16.0002 3.65432 15.9015 3.85185 15.8027 3.95061L13.2348 6.51851C13.136 6.61728 13.0373 6.71604 12.8397 6.71604ZM10.6669 3.16049L12.8397 5.23456L14.6175 3.45678L12.4447 1.28395L10.6669 3.16049Z" fill="black"/>
<path d="M3.55556 16H0.592593C0.296296 16 0 15.7037 0 15.4074V12.4444C0 12.2469 0.0987654 12.1481 0.197531 12.0494L8.09876 4.14815C8.2963 3.95062 8.69136 3.95062 8.88889 4.14815L11.8519 7.11111C12.0494 7.30864 12.0494 7.7037 11.8519 7.90123L3.95062 15.8025C3.85185 15.9012 3.65432 16 3.55556 16ZM1.18519 14.8148H3.35802L10.6667 7.50617L8.49383 5.33333L1.18519 12.642V14.8148Z" fill="black"/>
</g>
<defs>
<clipPath id="clip0_496_894">
<rect width="16" height="16" fill="white"/>
</clipPath>
</defs>
</svg>
