<svg width="16" height="16" viewBox="0 0 16 16" fill="none" xmlns="http://www.w3.org/2000/svg">
<path d="M3.12 14.87C3.04 14.78 3 14.67 3 14.54V1.48C3 1.33 3.04 1.22 3.12 1.13C3.2 1.04 3.31 1 3.44 1H8.9C10.31 1 11.38 1.34 12.1 2.02C12.82 2.7 13.18 3.59 13.18 4.68C13.18 5.43 13.01 6.05 12.66 6.55C12.31 7.05 11.91 7.41 11.44 7.64C12.01 7.92 12.49 8.35 12.88 8.94C13.27 9.53 13.46 10.2 13.46 10.96C13.46 11.71 13.29 12.39 12.95 13C12.61 13.61 12.11 14.1 11.44 14.46C10.77 14.82 9.98 15 9.06 15H3.44C3.31 15 3.2 14.96 3.12 14.87ZM8.6 6.94C9.47 6.94 10.13 6.74 10.58 6.35C11.03 5.96 11.26 5.41 11.26 4.7C11.26 4.01 11.04 3.48 10.59 3.12C10.14 2.76 9.48 2.58 8.6 2.58H4.88V6.94H8.6ZM8.8 13.42C9.65 13.42 10.32 13.19 10.81 12.73C11.3 12.27 11.54 11.68 11.54 10.96C11.54 10.23 11.3 9.63 10.81 9.18C10.32 8.73 9.65 8.5 8.8 8.5H4.88V13.42H8.8Z" fill="black"/>
</svg>
