<svg width="16" height="16" viewBox="0 0 16 16" fill="none" xmlns="http://www.w3.org/2000/svg">
<path d="M15.4 14.9H5.6C5.3 14.9 5 14.6 5 14.3C5 14 5.3 13.7 5.6 13.7H15.4C15.7 13.7 16 14 16 14.3C16 14.6 15.7 14.9 15.4 14.9Z" fill="black"/>
<path d="M15.4 8.60002H5.6C5.3 8.60002 5 8.30002 5 8.00002C5 7.70002 5.3 7.40002 5.6 7.40002H15.4C15.7 7.40002 16 7.70002 16 8.00002C16 8.30002 15.7 8.60002 15.4 8.60002Z" fill="black"/>
<path d="M15.4 2.10002H5.6C5.3 2.10002 5 1.80002 5 1.50002C5 1.20002 5.3 0.900024 5.6 0.900024H15.4C15.7 0.900024 16 1.20002 16 1.50002C16 1.80002 15.7 2.10002 15.4 2.10002Z" fill="black"/>
<path fill-rule="evenodd" clip-rule="evenodd" d="M3.34183 13.7141C3.14657 13.5188 2.82999 13.5188 2.63473 13.7141L1.57422 14.7746L0.867225 14.0676C0.671963 13.8723 0.355381 13.8723 0.160119 14.0676C-0.0351436 14.2629 -0.0351436 14.5794 0.160119 14.7747L1.21023 15.8248C1.2136 15.8284 1.21702 15.8319 1.22051 15.8354C1.33572 15.9506 1.49316 15.9978 1.643 15.9771C1.74721 15.9627 1.84776 15.9155 1.92789 15.8354C1.93091 15.8323 1.93388 15.8293 1.93681 15.8262L3.34183 14.4212C3.5371 14.2259 3.5371 13.9094 3.34183 13.7141Z" fill="black"/>
<path fill-rule="evenodd" clip-rule="evenodd" d="M3.34183 6.9141C3.14657 6.71884 2.82999 6.71884 2.63473 6.9141L1.57422 7.97461L0.867225 7.26762C0.671963 7.07235 0.355381 7.07235 0.160119 7.26762C-0.0351436 7.46288 -0.0351436 7.77946 0.160119 7.97472L1.21023 9.02483C1.2136 9.0284 1.21702 9.03193 1.22051 9.03542C1.33572 9.15063 1.49316 9.19786 1.643 9.17712C1.74721 9.16275 1.84776 9.1155 1.92789 9.03538C1.93091 9.03236 1.93388 9.02931 1.93681 9.02623L3.34183 7.62121C3.5371 7.42594 3.5371 7.10936 3.34183 6.9141Z" fill="black"/>
<path fill-rule="evenodd" clip-rule="evenodd" d="M3.34183 0.214088C3.14657 0.0188259 2.82999 0.018826 2.63473 0.214088L1.57422 1.2746L0.867225 0.567604C0.671963 0.372342 0.355381 0.372342 0.160119 0.567604C-0.0351436 0.762866 -0.0351436 1.07945 0.160119 1.27471L1.21023 2.32482C1.2136 2.32839 1.21702 2.33192 1.22051 2.33541C1.33572 2.45062 1.49316 2.49785 1.643 2.47711C1.74721 2.46274 1.84776 2.41549 1.92789 2.33537C1.93091 2.33235 1.93388 2.3293 1.93681 2.32622L3.34183 0.921195C3.5371 0.725933 3.5371 0.40935 3.34183 0.214088Z" fill="black"/>
</svg>
