<svg width="16" height="16" viewBox="0 0 16 16" fill="none" xmlns="http://www.w3.org/2000/svg">
<path d="M12.4836 1.13151C12.4136 1.04151 12.3036 1.00151 12.1736 1.00151H10.0636H10.0536H9.0536C9.0436 1.00151 9.0336 1.00151 9.0336 1.00151H6.7936C6.6636 0.99151 6.5436 1.03151 6.4336 1.11151C6.3236 1.20151 6.2536 1.31151 6.2336 1.44151L6.0236 2.42151C5.9936 2.55151 6.0136 2.65151 6.0836 2.74151C6.1536 2.82151 6.2536 2.87151 6.3936 2.89151H8.2036L6.0136 13.1215H4.3836C4.2536 13.1115 4.1336 13.1415 4.0236 13.2315C3.9136 13.3215 3.8536 13.4215 3.8236 13.5515L3.6136 14.5315C3.5836 14.6615 3.6036 14.7715 3.6736 14.8515C3.7436 14.9315 3.8436 14.9815 3.9836 15.0015H6.0536H6.0636H7.0836C7.0936 15.0015 7.0936 15.0015 7.1036 15.0015H9.3536C9.4936 15.0015 9.6136 14.9615 9.7136 14.8815C9.8236 14.8015 9.8836 14.7015 9.9136 14.5615L10.1236 13.5615C10.1536 13.4315 10.1336 13.3215 10.0636 13.2415C9.9936 13.1615 9.8936 13.1115 9.7536 13.1115H7.9236L10.1236 2.88151H11.7636C11.9036 2.88151 12.0236 2.84151 12.1236 2.76151C12.2336 2.68151 12.2936 2.58151 12.3236 2.44151L12.5336 1.44151C12.5736 1.32151 12.5536 1.21151 12.4836 1.13151Z" fill="black"/>
</svg>
