<svg width="16" height="16" viewBox="0 0 16 16" fill="none" xmlns="http://www.w3.org/2000/svg">
<path d="M1.7799 13.22C1.8699 13.14 1.9799 13.1 2.1099 13.1H13.9299C14.0599 13.1 14.1699 13.14 14.2599 13.22C14.3499 13.3 14.3899 13.41 14.3899 13.54V14.54C14.3899 14.69 14.3499 14.8 14.2699 14.88C14.1899 14.96 14.0799 15 13.9299 15H2.1099C1.9799 15 1.8699 14.96 1.7799 14.87C1.6899 14.78 1.6499 14.67 1.6499 14.54V13.54C1.6499 13.41 1.6899 13.3 1.7799 13.22Z" fill="black"/>
<path d="M4.06992 10.93C3.13992 10 2.66992 8.6 2.66992 6.72V1.48C2.66992 1.33 2.70992 1.22 2.78992 1.13C2.86992 1.04 2.97992 1 3.10992 1H4.06992C4.21992 1 4.32992 1.04 4.41992 1.13C4.50992 1.22 4.54992 1.33 4.54992 1.48V6.76C4.54992 8.07 4.84992 9.04 5.45992 9.68C6.06992 10.32 6.92992 10.64 8.04992 10.64C9.15992 10.64 10.0099 10.32 10.6199 9.67C11.2299 9.02 11.5299 8.05 11.5299 6.76V1.48C11.5299 1.33 11.5699 1.22 11.6499 1.13C11.7299 1.04 11.8499 1 11.9899 1H12.9499C13.0799 1 13.1899 1.04 13.2799 1.13C13.3699 1.22 13.4099 1.33 13.4099 1.48V6.72C13.4099 8.6 12.9499 10 12.0199 10.93C11.0899 11.86 9.76992 12.32 8.04992 12.32C6.32992 12.32 5.00992 11.86 4.06992 10.93Z" fill="black"/>
</svg>
