<svg width="16" height="16" viewBox="0 0 16 16" fill="none" xmlns="http://www.w3.org/2000/svg">
<path d="M1.5 3C2.32843 3 3 2.32843 3 1.5C3 0.671573 2.32843 0 1.5 0C0.671573 0 0 0.671573 0 1.5C0 2.32843 0.671573 3 1.5 3Z" fill="black"/>
<path d="M1.5 16C2.32843 16 3 15.3284 3 14.5C3 13.6716 2.32843 13 1.5 13C0.671573 13 0 13.6716 0 14.5C0 15.3284 0.671573 16 1.5 16Z" fill="black"/>
<path d="M1.5 9.5C2.32843 9.5 3 8.82843 3 8C3 7.17157 2.32843 6.5 1.5 6.5C0.671573 6.5 0 7.17157 0 8C0 8.82843 0.671573 9.5 1.5 9.5Z" fill="black"/>
<path d="M15.4 14.9H5.6C5.3 14.9 5 14.6 5 14.3C5 14 5.3 13.7 5.6 13.7H15.4C15.7 13.7 16 14 16 14.3C16 14.6 15.7 14.9 15.4 14.9Z" fill="black"/>
<path d="M15.4 8.60002H5.6C5.3 8.60002 5 8.30002 5 8.00002C5 7.70002 5.3 7.40002 5.6 7.40002H15.4C15.7 7.40002 16 7.70002 16 8.00002C16 8.30002 15.7 8.60002 15.4 8.60002Z" fill="black"/>
<path d="M15.4 2.10002H5.6C5.3 2.10002 5 1.80002 5 1.50002C5 1.20002 5.3 0.900024 5.6 0.900024H15.4C15.7 0.900024 16 1.20002 16 1.50002C16 1.80002 15.7 2.10002 15.4 2.10002Z" fill="black"/>
</svg>
