<svg width="16" height="16" viewBox="0 0 16 16" fill="none" xmlns="http://www.w3.org/2000/svg">
<g clip-path="url(#clip0_496_811)">
<rect x="5" y="0.820007" width="11" height="1.25" rx="0.625" fill="black"/>
<rect x="5" y="7.29999" width="11" height="1.25" rx="0.625" fill="black"/>
<rect x="5" y="13.65" width="11" height="1.25" rx="0.625" fill="black"/>
<path d="M0 2.36H0.772V0.852C0.772 0.737333 0.776 0.654667 0.784 0.604C0.786667 0.572 0.789333 0.545333 0.792 0.524H0.78C0.769333 0.537333 0.754667 0.552 0.736 0.568C0.722667 0.581333 0.704 0.597333 0.68 0.616C0.658667 0.634667 0.632 0.654667 0.6 0.676L0.036 1.04V0.46L0.712 0H1.372V2.36H1.98V2.88H0V2.36Z" fill="black"/>
<path d="M0 7.28002C0 7.14669 0.024 7.02669 0.072 6.92002C0.122667 6.81069 0.192 6.71869 0.28 6.64402C0.370667 6.56669 0.478667 6.50669 0.604 6.46402C0.732 6.42136 0.873333 6.40002 1.028 6.40002C1.172 6.40002 1.304 6.42136 1.424 6.46402C1.544 6.50669 1.64667 6.56669 1.732 6.64402C1.82 6.71869 1.88667 6.81069 1.932 6.92002C1.98 7.02669 2.004 7.14536 2.004 7.27602C2.004 7.46536 1.95467 7.64002 1.856 7.80002C1.76 7.96002 1.60133 8.12802 1.38 8.30402L1.012 8.59602C0.929333 8.66002 0.853333 8.70669 0.784 8.73602C0.749333 8.75202 0.716 8.76536 0.684 8.77602V8.79202C0.718667 8.78936 0.757333 8.78669 0.8 8.78402C0.837333 8.78402 0.88 8.78402 0.928 8.78402C0.976 8.78136 1.02667 8.78002 1.08 8.78002H2.044V9.32002H0.02V8.70002L1.048 7.88402C1.17067 7.78802 1.26 7.69469 1.316 7.60402C1.37467 7.51069 1.404 7.41336 1.404 7.31202C1.404 7.19202 1.36933 7.09736 1.3 7.02802C1.23067 6.95869 1.136 6.92402 1.016 6.92402C0.890667 6.92402 0.789333 6.95736 0.712 7.02402C0.637333 7.08802 0.6 7.17336 0.6 7.28002H0Z" fill="black"/>
<path d="M1.02 15.92C0.873333 15.92 0.74 15.9027 0.62 15.868C0.5 15.8307 0.394667 15.7787 0.304 15.712C0.216 15.6427 0.145333 15.56 0.092 15.464C0.0413333 15.368 0.0106667 15.26 0 15.14H0.6C0.613333 15.2253 0.658667 15.2933 0.736 15.344C0.813333 15.3947 0.908 15.42 1.02 15.42C1.148 15.42 1.24933 15.3827 1.324 15.308C1.40133 15.2307 1.44 15.128 1.44 15C1.44 14.872 1.4 14.7707 1.32 14.696C1.24 14.6187 1.13333 14.58 1 14.58H0.64V14.04L1.024 13.704C1.05867 13.6747 1.09467 13.6467 1.132 13.62C1.16933 13.5933 1.20267 13.5707 1.232 13.552C1.26933 13.528 1.30533 13.5067 1.34 13.488V13.448C1.3 13.4587 1.256 13.4667 1.208 13.472C1.168 13.48 1.12 13.4867 1.064 13.492C1.01067 13.4973 0.953333 13.5 0.892 13.5H0.14V13H1.92V13.54L1.404 13.956C1.35333 13.996 1.30267 14.0293 1.252 14.056C1.228 14.072 1.204 14.0853 1.18 14.096C1.31333 14.1067 1.43333 14.136 1.54 14.184C1.64667 14.232 1.736 14.2947 1.808 14.372C1.88267 14.4493 1.94 14.5413 1.98 14.648C2.02 14.7547 2.04 14.872 2.04 15C2.04 15.1387 2.01467 15.2653 1.964 15.38C1.916 15.492 1.84667 15.588 1.756 15.668C1.668 15.748 1.56133 15.8107 1.436 15.856C1.31067 15.8987 1.172 15.92 1.02 15.92Z" fill="black"/>
</g>
<defs>
<clipPath id="clip0_496_811">
<rect width="16" height="15.9" fill="white"/>
</clipPath>
</defs>
</svg>
