<svg width="16" height="16" viewBox="0 0 16 16" fill="none" xmlns="http://www.w3.org/2000/svg">
<g clip-path="url(#clip0_528_762)">
<path d="M5.4998 10.8C5.2998 10.8 5.1998 10.7 4.9998 10.6L2.8998 8.40001C2.5998 8.10001 2.5998 7.70001 2.8998 7.50001L5.0998 5.30001C5.2998 5.00001 5.7998 5.00001 5.9998 5.30001C6.1998 5.60001 6.1998 6.00001 5.9998 6.30001L4.2998 8.00001L5.9998 9.70001C6.2998 10 6.2998 10.4 5.9998 10.6C5.8998 10.7 5.6998 10.8 5.4998 10.8Z" fill="black"/>
<path d="M10.7997 10.8C10.5997 10.8 10.4997 10.7 10.2997 10.6C9.99971 10.3 9.99971 9.89999 10.2997 9.69999L12.0997 7.99999L10.3997 6.29999C10.0997 5.99999 10.0997 5.59999 10.3997 5.39999C10.5997 5.09999 11.0997 5.09999 11.2997 5.39999L13.4997 7.59999C13.7997 7.89999 13.7997 8.29999 13.4997 8.49999L11.2997 10.7C11.0997 10.7 10.9997 10.8 10.7997 10.8Z" fill="black"/>
<path d="M15.3 16H0.6C0.3 16 0 15.7 0 15.3V0.6C0 0.3 0.3 0 0.6 0H15.3C15.7 0 16 0.3 16 0.6V15.3C16 15.7 15.7 16 15.3 16ZM1.2 14.7H14.7V1.2H1.2V14.7Z" fill="black"/>
</g>
<defs>
<clipPath id="clip0_528_762">
<rect width="16" height="16" fill="white"/>
</clipPath>
</defs>
</svg>
