<svg width="16" height="16" viewBox="0 0 16 16" fill="none" xmlns="http://www.w3.org/2000/svg">
<g clip-path="url(#clip0_536_789)">
<path fill-rule="evenodd" clip-rule="evenodd" d="M12.3076 10.4846C12.3076 10.8245 12.5831 11.1 12.923 11.1C13.2629 11.1 13.5384 10.8245 13.5384 10.4846V8.63843H15.3846C15.7245 8.63843 16 8.36291 16 8.02304C16 7.68318 15.7245 7.40766 15.3846 7.40766H13.5384V5.56151C13.5384 5.22165 13.2629 4.94613 12.923 4.94613C12.5831 4.94613 12.3076 5.22165 12.3076 5.56151V7.40766H10.4615C10.1217 7.40766 9.84615 7.68318 9.84615 8.02304C9.84615 8.36291 10.1217 8.63843 10.4615 8.63843H12.3076V10.4846Z" fill="black"/>
<path d="M1.58046 16H11.9198C12.8086 16 13.5 15.3086 13.5 14.4198V13.5926C13.5 13.2963 13.2037 13 12.9074 13C12.6111 13 12.3148 13.2963 12.3148 13.5926V14.4198C12.3148 14.6173 12.1173 14.8148 11.9198 14.8148H1.58046C1.38293 14.8148 1.1854 14.6173 1.1854 14.4198V1.58025C1.1854 1.38272 1.38293 1.18519 1.58046 1.18519H11.9198C12.1173 1.18519 12.3148 1.38272 12.3148 1.58025V2.40741C12.3148 2.80247 12.5123 3.075 12.9074 3.075C13.3025 3.075 13.5 2.80247 13.5 2.40741V1.58025C13.5 0.691358 12.8086 0 11.9198 0H1.58046C0.69157 0 0.000210762 0.691358 0.000210762 1.58025V14.4198C0.000210762 15.3086 0.69157 16 1.58046 16Z" fill="black"/>
</g>
<defs>
<clipPath id="clip0_536_789">
<rect width="16" height="16" fill="white" transform="matrix(-1 0 0 1 16 0)"/>
</clipPath>
</defs>
</svg>
