<svg width="16" height="16" viewBox="0 0 16 16" fill="none" xmlns="http://www.w3.org/2000/svg">
<path fill-rule="evenodd" clip-rule="evenodd" d="M8.36912 3.07693C8.36912 2.73706 8.64464 2.46155 8.9845 2.46155H13.4153C14.8428 2.46155 15.9999 3.61872 15.9999 5.04616V13.4154C15.9999 14.8428 14.8428 16 13.4153 16H5.04604C3.61892 16 2.46143 14.8439 2.46143 13.4162V8.90464C2.46143 8.56477 2.73694 8.28925 3.07681 8.28925C3.41668 8.28925 3.6922 8.56477 3.6922 8.90464V13.4162C3.6922 14.1636 4.29801 14.7692 5.04604 14.7692H13.4153C14.163 14.7692 14.7692 14.1631 14.7692 13.4154V5.04616C14.7692 4.29845 14.163 3.69232 13.4153 3.69232H8.9845C8.64464 3.69232 8.36912 3.4168 8.36912 3.07693Z" fill="black"/>
<path fill-rule="evenodd" clip-rule="evenodd" d="M3.69231 0.615385C3.69231 0.275517 3.41679 0 3.07692 0C2.73706 0 2.46154 0.275517 2.46154 0.615385V2.46154H0.615385C0.275517 2.46154 0 2.73706 0 3.07692C0 3.41679 0.275517 3.69231 0.615385 3.69231H2.46154V5.53846C2.46154 5.87833 2.73706 6.15385 3.07692 6.15385C3.41679 6.15385 3.69231 5.87833 3.69231 5.53846V3.69231H5.53846C5.87833 3.69231 6.15385 3.41679 6.15385 3.07692C6.15385 2.73706 5.87833 2.46154 5.53846 2.46154H3.69231V0.615385Z" fill="black"/>
</svg>
