<svg width="16" height="16" viewBox="0 0 16 16" fill="none" xmlns="http://www.w3.org/2000/svg">
<g clip-path="url(#clip0_496_873)">
<path fill-rule="evenodd" clip-rule="evenodd" d="M3.69238 10.4846C3.69238 10.8245 3.41687 11.1 3.077 11.1C2.73713 11.1 2.46161 10.8245 2.46161 10.4846V8.63843H0.615385C0.275517 8.63843 0 8.36291 0 8.02304C0 7.68318 0.275517 7.40766 0.615385 7.40766H2.46161V5.56151C2.46161 5.22165 2.73713 4.94613 3.077 4.94613C3.41687 4.94613 3.69238 5.22165 3.69238 5.56151V7.40766H5.53846C5.87833 7.40766 6.15385 7.68318 6.15385 8.02304C6.15385 8.36291 5.87833 8.63843 5.53846 8.63843H3.69238V10.4846Z" fill="black"/>
<path d="M14.4195 16H4.08025C3.19136 16 2.5 15.3086 2.5 14.4198V13.5926C2.5 13.2963 2.7963 13 3.09259 13C3.38889 13 3.68519 13.2963 3.68519 13.5926V14.4198C3.68519 14.6173 3.88272 14.8148 4.08025 14.8148H14.4195C14.6171 14.8148 14.8146 14.6173 14.8146 14.4198V1.58025C14.8146 1.38272 14.6171 1.18519 14.4195 1.18519H4.08025C3.88272 1.18519 3.68519 1.38272 3.68519 1.58025V2.40741C3.68519 2.80247 3.48765 3.075 3.09259 3.075C2.69753 3.075 2.5 2.80247 2.5 2.40741V1.58025C2.5 0.691358 3.19136 0 4.08025 0H14.4195C15.3084 0 15.9998 0.691358 15.9998 1.58025V14.4198C15.9998 15.3086 15.3084 16 14.4195 16Z" fill="black"/>
</g>
<defs>
<clipPath id="clip0_496_873">
<rect width="16" height="16" fill="white"/>
</clipPath>
</defs>
</svg>
