<svg width="16" height="16" viewBox="0 0 16 16" fill="none" xmlns="http://www.w3.org/2000/svg">
<path fill-rule="evenodd" clip-rule="evenodd" d="M8.36912 12.9231C8.36912 13.2629 8.64464 13.5385 8.9845 13.5385H13.4153C14.8428 13.5385 15.9999 12.3813 15.9999 10.9538V2.58461C15.9999 1.15716 14.8428 -9.53674e-06 13.4153 -9.53674e-06H5.04604C3.61892 -9.53674e-06 2.46143 1.15605 2.46143 2.58382V7.09536C2.46143 7.43523 2.73694 7.71075 3.07681 7.71075C3.41668 7.71075 3.6922 7.43523 3.6922 7.09536V2.58382C3.6922 1.83643 4.29801 1.23076 5.04604 1.23076H13.4153C14.163 1.23076 14.7692 1.8369 14.7692 2.58461V10.9538C14.7692 11.7015 14.163 12.3077 13.4153 12.3077H8.9845C8.64464 12.3077 8.36912 12.5832 8.36912 12.9231Z" fill="black"/>
<path fill-rule="evenodd" clip-rule="evenodd" d="M3.69231 15.3846C3.69231 15.7245 3.41679 16 3.07692 16C2.73706 16 2.46154 15.7245 2.46154 15.3846V13.5385H0.615385C0.275517 13.5385 0 13.2629 0 12.9231C0 12.5832 0.275517 12.3077 0.615385 12.3077H2.46154V10.4615C2.46154 10.1217 2.73706 9.84615 3.07692 9.84615C3.41679 9.84615 3.69231 10.1217 3.69231 10.4615V12.3077H5.53846C5.87833 12.3077 6.15385 12.5832 6.15385 12.9231C6.15385 13.2629 5.87833 13.5385 5.53846 13.5385H3.69231V15.3846Z" fill="black"/>
</svg>
