<svg width="16" height="16" viewBox="0 0 16 16" fill="none" xmlns="http://www.w3.org/2000/svg">
<g clip-path="url(#clip0_496_879)">
<path d="M7.50608 4.83951L10.1727 2.17284C11.1604 1.18519 12.8394 1.18519 13.8271 2.17284C14.3209 2.66667 14.6172 3.35803 14.6172 4.04938C14.6172 4.74074 14.3209 5.4321 13.8271 5.92593L12.7406 6.91358C12.5431 7.11111 12.5431 7.50617 12.7406 7.80247C12.9382 8 13.3332 8 13.6295 7.80247L14.716 6.71605C15.4073 6.02469 15.8024 5.03704 15.8024 4.04938C15.8024 3.06173 15.4073 2.07408 14.716 1.38272C13.2345 -0.0987639 10.7653 -0.0987639 9.28385 1.38272L6.61719 4.04938L7.50608 4.83951Z" fill="black"/>
<path d="M15.536 14.5736L11.1604 10.2716L10.2715 9.38271L6.61722 5.72839L5.72833 4.8395L1.08635 0.197526C0.888823 -5.27501e-06 0.493761 -5.27501e-06 0.197465 0.197526C-6.63102e-05 0.395056 -6.63102e-05 0.790118 0.197465 1.08641L4.9382 5.82715C4.04932 7.30864 4.14808 9.28394 5.43203 10.5679C5.62956 10.7654 5.82709 10.963 6.02462 11.0617C6.12339 11.1605 6.22216 11.1605 6.32092 11.1605C6.51845 11.1605 6.71598 11.0617 6.81475 10.8642C7.01228 10.5679 6.91351 10.1728 6.61722 9.9753C6.51845 9.87654 6.32092 9.77777 6.22216 9.67901C5.82709 9.18518 5.62956 8.49382 5.62956 7.80246C5.62956 7.4074 5.72833 7.01234 5.92586 6.71604L9.48141 10.2716L5.92586 13.8272C4.9382 14.8148 3.25919 14.8148 2.27154 13.8272C1.77771 13.3333 1.48142 12.642 1.48142 11.9506C1.48142 11.2593 1.77771 10.5679 2.27154 10.0741L3.35796 8.98765C3.55549 8.79012 3.55549 8.39506 3.35796 8.09876C3.16043 7.80246 2.76537 7.90123 2.46907 8.09876L1.28388 9.38271C-0.197597 10.8642 -0.197597 13.3333 1.28388 14.8148C2.07401 15.6049 3.06166 15.9012 3.95055 15.9012C4.83944 15.9012 5.92586 15.5062 6.61722 14.8148L10.1728 11.2593L14.578 15.577C15.0749 16.0882 15.4774 16.0921 15.829 15.7242C16.1315 15.3644 15.986 15.0236 15.536 14.5736Z" fill="black"/>
<path d="M9.2837 6.0247C9.48123 6.12347 9.57999 6.22223 9.67876 6.321C10.0738 6.71606 10.2714 7.20989 10.3701 7.70371L11.5553 8.8889C11.6541 8.5926 11.6541 8.39507 11.6541 8.09877C11.6541 7.11112 11.259 6.12347 10.5676 5.43211C10.3701 5.23458 10.1726 5.03705 9.97506 4.93828C9.67876 4.83952 9.2837 4.83952 9.08617 5.13581C8.88863 5.43211 8.9874 5.82717 9.2837 6.0247Z" fill="black"/>
</g>
<defs>
<clipPath id="clip0_496_879">
<rect width="16" height="16" fill="white"/>
</clipPath>
</defs>
</svg>
