<svg width="16" height="16" viewBox="0 0 16 16" fill="none" xmlns="http://www.w3.org/2000/svg">
<path fill-rule="evenodd" clip-rule="evenodd" d="M13.9685 2.0315C12.9365 0.999453 11.2522 0.999453 10.2201 2.0315L6.30689 5.94474C5.27484 6.97679 5.27484 8.66106 6.30689 9.69311C6.43991 9.82613 6.57903 9.94034 6.72412 10.0371C7.01304 10.2297 7.09111 10.62 6.8985 10.909C6.70588 11.1979 6.31552 11.276 6.0266 11.0833C5.80954 10.9386 5.60662 10.7712 5.41773 10.5823C3.89461 9.05915 3.89461 6.5787 5.41773 5.05557L9.33097 1.14234C10.8541 -0.38078 13.3345 -0.38078 14.8577 1.14234C16.3808 2.66546 16.3808 5.14592 14.8577 6.66904L13.731 7.79573C13.4854 8.04126 13.0873 8.04126 12.8418 7.79573C12.5963 7.55019 12.5963 7.1521 12.8418 6.90657L13.9685 5.77988C15.0006 4.74783 15.0006 3.06355 13.9685 2.0315Z" fill="black"/>
<path fill-rule="evenodd" clip-rule="evenodd" d="M9.07294 5.09398C9.25836 4.80039 9.64668 4.71271 9.94027 4.89813C10.178 5.04828 10.395 5.23043 10.5823 5.4177C12.1054 6.94083 12.1054 9.42128 10.5823 10.9444L6.66904 14.8576C5.14592 16.3808 2.66546 16.3808 1.14234 14.8576C-0.38078 13.3345 -0.38078 10.8541 1.14234 9.33094L2.26903 8.20425C2.51457 7.95871 2.91266 7.95871 3.15819 8.20425C3.40373 8.44979 3.40373 8.84788 3.15819 9.09341L2.0315 10.2201C0.999454 11.2522 0.999454 12.9364 2.0315 13.9685C3.06355 15.0005 4.74783 15.0005 5.77988 13.9685L9.69311 10.0552C10.7252 9.02319 10.7252 7.33892 9.69311 6.30687C9.55847 6.17223 9.41333 6.05259 9.26879 5.9613C8.9752 5.77588 8.88752 5.38757 9.07294 5.09398Z" fill="black"/>
</svg>
