<svg width="16" height="16" viewBox="0 0 16 16" fill="none" xmlns="http://www.w3.org/2000/svg">
<path fill-rule="evenodd" clip-rule="evenodd" d="M1.25 3.39063C1.25 2.20549 2.20549 1.25 3.39063 1.25H7.41922C8.60435 1.25 9.55984 2.20549 9.55984 3.39063V13.8591L5.6388 9.94534C5.3945 9.70149 4.99877 9.70186 4.75492 9.94616C4.51106 10.1905 4.51143 10.5862 4.75573 10.83L9.6848 15.75C9.79883 15.9018 9.98037 16 10.1848 16C10.3903 16 10.5727 15.9008 10.6866 15.7477L15.6047 10.8296C15.8488 10.5856 15.8488 10.1898 15.6047 9.94575C15.3606 9.70168 14.9649 9.70168 14.7208 9.94575L10.8098 13.8567V3.39063C10.8098 1.51513 9.29471 0 7.41922 0H3.39063C1.51513 0 0 1.51513 0 3.39063V6.15625C0 6.50143 0.279822 6.78125 0.625 6.78125C0.970178 6.78125 1.25 6.50143 1.25 6.15625V3.39063Z" fill="black"/>
</svg>
