<svg width="16" height="16" viewBox="0 0 16 16" fill="none" xmlns="http://www.w3.org/2000/svg">
<path d="M15.4074 9.87654C15.1111 9.87654 14.8148 10.1728 14.8148 10.4691V14.4198C14.8148 14.6173 14.6173 14.8148 14.4198 14.8148H1.58025C1.38272 14.8148 1.18519 14.6173 1.18519 14.4198V1.58025C1.18519 1.38272 1.38272 1.18519 1.58025 1.18519H5.53086C5.92593 1.18519 6.12346 0.987654 6.12346 0.592593C6.12346 0.197531 5.92593 0 5.53086 0H1.58025C0.691358 0 0 0.691358 0 1.58025V14.4198C0 15.3086 0.691358 16 1.58025 16H14.4198C15.3086 16 16 15.3086 16 14.4198V10.4691C16 10.1728 15.8025 9.87654 15.4074 9.87654Z" fill="black"/>
<path d="M15.605 0.493827C15.3087 0.197531 14.9136 0 14.4198 0H9.4815C9.1852 0 8.88891 0.296296 8.88891 0.592593C8.88891 0.888889 9.1852 1.18519 9.4815 1.18519H13.9259L7.40743 7.7037C7.20989 7.90123 7.20989 8.2963 7.40743 8.59259C7.60496 8.69136 7.70372 8.79012 7.90125 8.79012C8.09878 8.79012 8.19755 8.69136 8.29631 8.59259L14.8148 2.07407V6.51852C14.8148 6.81481 15.1111 7.11111 15.4074 7.11111C15.7037 7.11111 16 6.81481 16 6.51852V1.58025C16 1.18519 15.9013 0.790123 15.605 0.493827Z" fill="black"/>
</svg>
