<svg width="16" height="16" viewBox="0 0 16 16" fill="none" xmlns="http://www.w3.org/2000/svg">
<path fill-rule="evenodd" clip-rule="evenodd" d="M10.9331 1.06694C10.689 0.822864 10.689 0.427136 10.9331 0.183058C11.1771 -0.0610194 11.5729 -0.0610194 11.8169 0.183058L15.8169 4.18306C15.9402 4.30637 16.0013 4.46838 16 4.62999C16 4.63166 16 4.63333 16 4.63501C16 4.84154 15.8998 5.02467 15.7454 5.13846L11.8169 9.06694C11.5729 9.31102 11.1771 9.31102 10.9331 9.06694C10.689 8.82286 10.689 8.42714 10.9331 8.18306L13.8561 5.26001H6.015C3.39018 5.26001 1.27 7.38019 1.27 10.005C1.27 12.6298 3.39018 14.75 6.015 14.75H12.905C13.2502 14.75 13.53 15.0298 13.53 15.375C13.53 15.7202 13.2502 16 12.905 16H6.015C2.69982 16 0.0199995 13.3202 0.0199995 10.005C0.0199995 6.68983 2.69982 4.01001 6.015 4.01001H13.8761L10.9331 1.06694Z" fill="black"/>
</svg>
