<svg width="16" height="16" viewBox="0 0 16 16" fill="none" xmlns="http://www.w3.org/2000/svg">
<path fill-rule="evenodd" clip-rule="evenodd" d="M0.625 0C0.279822 0 0 0.279822 0 0.625V12.625C0 12.9702 0.279822 13.25 0.625 13.25H7.3999V15.375C7.3999 15.7202 7.67972 16 8.0249 16H15.3849C15.7301 16 16.0099 15.7202 16.0099 15.375V3.375C16.0099 3.02982 15.7301 2.75 15.3849 2.75H8.61V0.625C8.61 0.279822 8.33018 0 7.985 0H0.625ZM1.25 12V1.25H7.36V12H1.25ZM8.6499 14.75V4H14.7599V14.75H8.6499Z" fill="black"/>
</svg>
