<svg width="16" height="16" viewBox="0 0 16 16" fill="none" xmlns="http://www.w3.org/2000/svg">
<path d="M9.0107 1C5.71658 1 3.02139 3.7 3.02139 7C3.02139 8.4 3.5205 9.7 4.31907 10.7L1.2246 13.8C0.925134 14.1 0.925134 14.5 1.2246 14.8C1.32442 14.9 1.52406 15 1.72371 15C1.92335 15 2.12299 14.9 2.22282 14.8L5.31729 11.7C6.31551 12.5 7.61319 13 9.0107 13C12.3048 13 15 10.3 15 7C15 3.7 12.3048 1 9.0107 1ZM9.0107 11.6C6.51515 11.6 4.4189 9.5 4.4189 7C4.4189 4.5 6.41533 2.4 9.0107 2.4C11.6061 2.4 13.6025 4.5 13.6025 7C13.6025 9.5 11.5062 11.6 9.0107 11.6Z" fill="black"/>
</svg>
