<svg width="16" height="16" viewBox="0 0 16 16" fill="none" xmlns="http://www.w3.org/2000/svg">
<g clip-path="url(#clip0_538_820)">
<path d="M9.4 12H6.6C6.3 12 6 11.7 6 11.4C6 11.1 6.3 10.8 6.6 10.8H9.4C9.7 10.8 10 11.1 10 11.4C10 11.7 9.7 12 9.4 12Z" fill="black"/>
<path d="M7.9999 9.8C7.6999 9.8 7.3999 9.5 7.3999 9.2V0.6C7.3999 0.3 7.6999 0 7.9999 0C8.2999 0 8.5999 0.3 8.5999 0.6V9.1C8.5999 9.5 8.2999 9.8 7.9999 9.8Z" fill="black"/>
<path d="M7.9999 16C7.6999 16 7.3999 15.7 7.3999 15.4V13.6C7.3999 13.3 7.6999 13 7.9999 13C8.2999 13 8.5999 13.3 8.5999 13.6V15.4C8.5999 15.7 8.2999 16 7.9999 16Z" fill="black"/>
<path d="M3.4 8.60002H0.6C0.3 8.60002 0 8.30002 0 8.00002C0 7.70002 0.3 7.40002 0.6 7.40002H3.4C3.7 7.40002 4 7.70002 4 8.00002C4 8.30002 3.7 8.60002 3.4 8.60002Z" fill="black"/>
<path d="M1.9999 6.4C1.6999 6.4 1.3999 6.1 1.3999 5.8V0.6C1.3999 0.3 1.6999 0 1.9999 0C2.2999 0 2.5999 0.3 2.5999 0.6V5.7C2.5999 6.1 2.2999 6.4 1.9999 6.4Z" fill="black"/>
<path d="M1.9999 16C1.6999 16 1.3999 15.7 1.3999 15.4V10.3C1.3999 10 1.6999 9.70001 1.9999 9.70001C2.2999 9.70001 2.5999 10 2.5999 10.3V15.4C2.5999 15.7 2.2999 16 1.9999 16Z" fill="black"/>
<path d="M12.6 4H15.4C15.7 4 16 4.3 16 4.6C16 4.9 15.7 5.2 15.4 5.2H12.6C12.3 5.2 12 5 12 4.6C12 4.3 12.3 4 12.6 4Z" fill="black"/>
<path d="M13.9999 6.20001C14.2999 6.20001 14.5999 6.50001 14.5999 6.80001V15.3C14.5999 15.6 14.2999 15.9 13.9999 15.9C13.6999 15.9 13.3999 15.6 13.3999 15.3V6.90001C13.3999 6.50001 13.6999 6.20001 13.9999 6.20001Z" fill="black"/>
<path d="M13.9999 0C14.2999 0 14.5999 0.3 14.5999 0.6V2.4C14.5999 2.7 14.2999 3 13.9999 3C13.6999 3 13.3999 2.7 13.3999 2.4V0.6C13.3999 0.3 13.6999 0 13.9999 0Z" fill="black"/>
</g>
<defs>
<clipPath id="clip0_538_820">
<rect width="16" height="16" fill="white"/>
</clipPath>
</defs>
</svg>
