<svg width="16" height="16" viewBox="0 0 16 16" fill="none" xmlns="http://www.w3.org/2000/svg">
<path fill-rule="evenodd" clip-rule="evenodd" d="M0 0.625C0 0.279822 0.279822 0 0.625 0H15.375C15.7202 0 16 0.279822 16 0.625V15.375C16 15.7202 15.7202 16 15.375 16H0.625C0.279822 16 0 15.7202 0 15.375V0.625ZM1.25 1.25V4.91998H4.91992V1.25H1.25ZM1.25 9.84003V6.16998H4.91992V9.84003H1.25ZM1.25 11.09V14.75H4.91992V11.09H1.25ZM6.16992 11.09V14.75H9.83984V11.09H6.16992ZM11.0898 11.09V14.75H14.75V11.09H11.0898ZM14.75 9.84003H11.0898V6.16998H14.75V9.84003ZM9.83984 9.84003H6.16992V6.16998H9.83984V9.84003ZM11.0898 4.91998H14.75V1.25H11.0898V4.91998ZM6.16992 4.91998H9.83984V1.25H6.16992V4.91998Z" fill="black"/>
</svg>
