<svg width="16" height="16" viewBox="0 0 16 16" fill="none" xmlns="http://www.w3.org/2000/svg">
<path fill-rule="evenodd" clip-rule="evenodd" d="M5.06694 1.06694C5.31102 0.822864 5.31102 0.427136 5.06694 0.183058C4.82286 -0.0610194 4.42714 -0.0610194 4.18306 0.183058L0.183058 4.18306C0.0597513 4.30637 -0.00126157 4.46838 1.9767e-05 4.62999C6.59717e-06 4.63166 0 4.63333 0 4.63501C0 4.84154 0.100172 5.02467 0.254579 5.13846L4.18306 9.06694C4.42714 9.31102 4.82286 9.31102 5.06694 9.06694C5.31102 8.82286 5.31102 8.42714 5.06694 8.18306L2.14389 5.26001H9.985C12.6098 5.26001 14.73 7.38019 14.73 10.005C14.73 12.6298 12.6098 14.75 9.985 14.75H3.095C2.74982 14.75 2.47 15.0298 2.47 15.375C2.47 15.7202 2.74982 16 3.095 16H9.985C13.3002 16 15.98 13.3202 15.98 10.005C15.98 6.68983 13.3002 4.01001 9.985 4.01001H2.12387L5.06694 1.06694Z" fill="black"/>
</svg>
